# xmcd
#
# Track frame offsets: 
#        150
#        13549
#        23401
#        33934
#        49067
#        61197
#        76137
#        89311
#        103585
#        115047
#        127623
#        135731
#        149009
#        165022
#        178227
#
# Disc length: 2574 seconds
#
# Revision: 1
# Processed by: cddbd v1.5.2PL0 Copyright (c) Steve Scherf et al.
# Submitted via: ExactAudioCopy v0.95a4
#
DISCID=ad0a0c0f
DTITLE=Various Artist - Gloryland - 30 Bluegrass Gospel Classics [CD 1)
DYEAR=2009
DGENRE=Bluegrass
TTITLE0=The Stanley Brothers - Somebody Touched Me
TTITLE1=Ricky Skaggs and John Starling - Drifting Too Far From The Shore
TTITLE1=
TTITLE2=Don Reno and Red Smiley - Shine Hallelujah Shine
TTITLE3=The Seldom Scene - Were You There
TTITLE4=Ralph Stanley - Rank Stranger
TTITLE5=Forbes Family - Blessed Assurance
TTITLE6=The Country Gentlemen - I'm Using My Bible For A Road Map
TTITLE7=Larry Sparks - The Old Rugged Cross
TTITLE8=Buck White and The Down Home Folks - Down Home Gospel Medley
TTITLE9=Cliff Waldron - Just A Closer Walk With Thee
TTITLE10=Blue Highway - Some Day
TTITLE11=Easter Brothers - They're Holding Up The Ladder
TTITLE12=Paul Williams - Beulah Land
TTITLE13=IIIrd Tyme Out - Little Black Train
TTITLE14=Marshall Family - Gloryland
EXTD=Year: 2009 [CD 1 from 2)
EXTT0=
EXTT1=
EXTT2=
EXTT3=
EXTT4=
EXTT5=
EXTT6=
EXTT7=
EXTT8=
EXTT9=
EXTT10=
EXTT11=
EXTT12=
EXTT13=
EXTT14=
PLAYORDER=
